HIERARCHY
ROOT reference
{
  OFFSET 0 0 0
  CHANNELS 6 Xposition Yposition Zposition Zrotation Xrotation Yrotation
  JOINT Hips
  {
    OFFSET 366.965 89.8555 201.872
    CHANNELS 3 Zrotation Xrotation Yrotation
    JOINT RightUpLeg
    {
      OFFSET -9.27238 -1.56811 0.0123499
      CHANNELS 3 Zrotation Xrotation Yrotation
      JOINT RightLeg
      {
        OFFSET 0.00682797 -41.8882 0.0419786
        CHANNELS 3 Zrotation Xrotation Yrotation
        JOINT RightFoot
        {
          OFFSET 0.530869 -42.1265 0.242224
          CHANNELS 3 Zrotation Xrotation Yrotation
          End Site
          {
            OFFSET 0 -7.69 17.5
          }
        }
      }
    }
    JOINT LeftUpLeg
    {
      OFFSET 9.28391 -1.61639 -0.0258413
      CHANNELS 3 Zrotation Xrotation Yrotation
      JOINT LeftLeg
      {
        OFFSET 0.0291166 -41.8727 -0.014263
        CHANNELS 3 Zrotation Xrotation Yrotation
        JOINT LeftFoot
        {
          OFFSET -0.125672 -41.4933 -0.195947
          CHANNELS 3 Zrotation Xrotation Yrotation
          End Site
          {
            OFFSET 0 -7.69 17.5
          }
        }
      }
    }
    JOINT Spine
    {
      OFFSET 0.0325614 14.2957 0.0242834
      CHANNELS 3 Zrotation Xrotation Yrotation
      JOINT Spine1
      {
        OFFSET 0.00746153 9.71731 0.0172653
        CHANNELS 3 Zrotation Xrotation Yrotation
        JOINT Spine2
        {
          OFFSET 0.0283815 10.1155 -0.00252583
          CHANNELS 3 Zrotation Xrotation Yrotation
          JOINT Spine3
          {
            OFFSET 0.0279172 9.71841 -0.00465252
            CHANNELS 3 Zrotation Xrotation Yrotation
            JOINT Neck
            {
              OFFSET 0.0182001 10.3765 0.0184284
              CHANNELS 3 Zrotation Xrotation Yrotation
              JOINT Head
              {
                OFFSET 0.0113688 9.47343 0.00632939
                CHANNELS 3 Zrotation Xrotation Yrotation
                End Site
                {
                  OFFSET 0 15.95 0
                }
              }
            }
            JOINT RightShoulder
            {
              OFFSET -3.17351 6.93492 0.00767284
              CHANNELS 3 Zrotation Xrotation Yrotation
              JOINT RightArm
              {
                OFFSET -12.7835 -0.0133269 0.0174019
                CHANNELS 3 Zrotation Xrotation Yrotation
                JOINT RightForeArm
                {
                  OFFSET -26.5112 -0.0170228 0.0247955
                  CHANNELS 3 Zrotation Xrotation Yrotation
                  JOINT RightHand
                  {
                    OFFSET -25.9918 -0.0199622 0.0218897
                    CHANNELS 3 Zrotation Xrotation Yrotation
                    JOINT RightHandThumb1
                    {
                      OFFSET -2.48905 0.190105 3.12053
                      CHANNELS 3 Zrotation Xrotation Yrotation
                      JOINT RightHandThumb2
                      {
                        OFFSET -3.68274 0 0
                        CHANNELS 3 Zrotation Xrotation Yrotation
                        JOINT RightHandThumb3
                        {
                          OFFSET -2.55832 0 0
                          CHANNELS 3 Zrotation Xrotation Yrotation
                          End Site
                          {
                            OFFSET -2.194 0 0
                          }
                        }
                      }
                    }
                    JOINT RightInHandIndex
                    {
                      OFFSET -3.22368 0.508421 1.97842
                      CHANNELS 3 Zrotation Xrotation Yrotation
                      JOINT RightHandIndex1
                      {
                        OFFSET -5.21684 -0.091368 0.999158
                        CHANNELS 3 Zrotation Xrotation Yrotation
                        JOINT RightHandIndex2
                        {
                          OFFSET -3.61937 0 0
                          CHANNELS 3 Zrotation Xrotation Yrotation
                          JOINT RightHandIndex3
                          {
                            OFFSET -2.0521 0 0
                            CHANNELS 3 Zrotation Xrotation Yrotation
                            End Site
                            {
                              OFFSET -1.805 0 0
                            }
                          }
                        }
                      }
                    }
                    JOINT RightInHandMiddle
                    {
                      OFFSET -3.38211 0.517263 0.756737
                      CHANNELS 3 Zrotation Xrotation Yrotation
                      JOINT RightHandMiddle1
                      {
                        OFFSET -5.17411 -0.084 0.313895
                        CHANNELS 3 Zrotation Xrotation Yrotation
                        JOINT RightHandMiddle2
                        {
                          OFFSET -3.94947 0 0
                          CHANNELS 3 Zrotation Xrotation Yrotation
                          JOINT RightHandMiddle3
                          {
                            OFFSET -2.47579 0 0
                            CHANNELS 3 Zrotation Xrotation Yrotation
                            End Site
                            {
                              OFFSET -1.975 0 0
                            }
                          }
                        }
                      }
                    }
                    JOINT RightInHandRing
                    {
                      OFFSET -3.36516 0.537895 -0.128947
                      CHANNELS 3 Zrotation Xrotation Yrotation
                      JOINT RightHandRing1
                      {
                        OFFSET -4.63474 -0.022105 -0.478947
                        CHANNELS 3 Zrotation Xrotation Yrotation
                        JOINT RightHandRing2
                        {
                          OFFSET -3.44238 0 0
                          CHANNELS 3 Zrotation Xrotation Yrotation
                          JOINT RightHandRing3
                          {
                            OFFSET -2.3881 0 0
                            CHANNELS 3 Zrotation Xrotation Yrotation
                            End Site
                            {
                              OFFSET -1.857 0 0
                            }
                          }
                        }
                      }
                    }
                    JOINT RightInHandPinky
                    {
                      OFFSET -3.16105 0.469368 -1.20179
                      CHANNELS 3 Zrotation Xrotation Yrotation
                      JOINT RightHandPinky1
                      {
                        OFFSET -4.14105 -0.022105 -1.09053
                        CHANNELS 3 Zrotation Xrotation Yrotation
                        JOINT RightHandPinky2
                        {
                          OFFSET -2.75653 0 0
                          CHANNELS 3 Zrotation Xrotation Yrotation
                          JOINT RightHandPinky3
                          {
                            OFFSET -1.74189 0 0
                            CHANNELS 3 Zrotation Xrotation Yrotation
                            End Site
                            {
                              OFFSET -1.645 0 0
                            }
                          }
                        }
                      }
                    }
                  }
                }
              }
            }
            JOINT LeftShoulder
            {
              OFFSET 3.23633 6.91116 -0.0162332
              CHANNELS 3 Zrotation Xrotation Yrotation
              JOINT LeftArm
              {
                OFFSET 12.8112 -0.0136289 -0.0286256
                CHANNELS 3 Zrotation Xrotation Yrotation
                JOINT LeftForeArm
                {
                  OFFSET 26.502 -0.0235899 -0.00806802
                  CHANNELS 3 Zrotation Xrotation Yrotation
                  JOINT LeftHand
                  {
                    OFFSET 25.9974 -0.0321613 -0.027004
                    CHANNELS 3 Zrotation Xrotation Yrotation
                    JOINT LeftHandThumb1
                    {
                      OFFSET 2.48905 0.190105 3.12053
                      CHANNELS 3 Zrotation Xrotation Yrotation
                      JOINT LeftHandThumb2
                      {
                        OFFSET 3.68274 0 0
                        CHANNELS 3 Zrotation Xrotation Yrotation
                        JOINT LeftHandThumb3
                        {
                          OFFSET 2.55832 0 0
                          CHANNELS 3 Zrotation Xrotation Yrotation
                          End Site
                          {
                            OFFSET 2.194 0 0
                          }
                        }
                      }
                    }
                    JOINT LeftInHandIndex
                    {
                      OFFSET 3.22368 0.508421 1.97842
                      CHANNELS 3 Zrotation Xrotation Yrotation
                      JOINT LeftHandIndex1
                      {
                        OFFSET 5.21684 -0.091368 0.999158
                        CHANNELS 3 Zrotation Xrotation Yrotation
                        JOINT LeftHandIndex2
                        {
                          OFFSET 3.61937 0 0
                          CHANNELS 3 Zrotation Xrotation Yrotation
                          JOINT LeftHandIndex3
                          {
                            OFFSET 2.0521 0 0
                            CHANNELS 3 Zrotation Xrotation Yrotation
                            End Site
                            {
                              OFFSET 1.805 0 0
                            }
                          }
                        }
                      }
                    }
                    JOINT LeftInHandMiddle
                    {
                      OFFSET 3.38211 0.517263 0.756737
                      CHANNELS 3 Zrotation Xrotation Yrotation
                      JOINT LeftHandMiddle1
                      {
                        OFFSET 5.17411 -0.084 0.313895
                        CHANNELS 3 Zrotation Xrotation Yrotation
                        JOINT LeftHandMiddle2
                        {
                          OFFSET 3.94947 0 0
                          CHANNELS 3 Zrotation Xrotation Yrotation
                          JOINT LeftHandMiddle3
                          {
                            OFFSET 2.47579 0 0
                            CHANNELS 3 Zrotation Xrotation Yrotation
                            End Site
                            {
                              OFFSET 1.975 0 0
                            }
                          }
                        }
                      }
                    }
                    JOINT LeftInHandRing
                    {
                      OFFSET 3.36516 0.537895 -0.128947
                      CHANNELS 3 Zrotation Xrotation Yrotation
                      JOINT LeftHandRing1
                      {
                        OFFSET 4.63474 -0.022105 -0.478947
                        CHANNELS 3 Zrotation Xrotation Yrotation
                        JOINT LeftHandRing2
                        {
                          OFFSET 3.44238 0 0
                          CHANNELS 3 Zrotation Xrotation Yrotation
                          JOINT LeftHandRing3
                          {
                            OFFSET 2.3881 0 0
                            CHANNELS 3 Zrotation Xrotation Yrotation
                            End Site
                            {
                              OFFSET 1.857 0 0
                            }
                          }
                        }
                      }
                    }
                    JOINT LeftInHandPinky
                    {
                      OFFSET 3.16105 0.469368 -1.20179
                      CHANNELS 3 Zrotation Xrotation Yrotation
                      JOINT LeftHandPinky1
                      {
                        OFFSET 4.14105 -0.022105 -1.09053
                        CHANNELS 3 Zrotation Xrotation Yrotation
                        JOINT LeftHandPinky2
                        {
                          OFFSET 2.75653 0 0
                          CHANNELS 3 Zrotation Xrotation Yrotation
                          JOINT LeftHandPinky3
                          {
                            OFFSET 1.74189 0 0
                            CHANNELS 3 Zrotation Xrotation Yrotation
                            End Site
                            {
                              OFFSET 1.645 0 0
                            }
                          }
                        }
                      }
                    }
                  }
                }
              }
            }
          }
        }
      }
    }
  }
}
MOTION
Frames: 2
Frame Time: 0.00833333
1.050000000000000000e+03 0.000000000000000000e+00 0.000000000000000000e+00 0.000000000000000000e+00 0.000000000000000000e+00 0.000000000000000000e+00 2.227262956415680861e+01 9.358746748809654292e+00 -8.686255695786607589e+01 8.069469168821136407e+00 -3.684205669409273298e+01 6.331492927379011704e+00 -3.816500813206658904e+00 1.764723970031361233e+01 -7.387337821986243114e+00 1.071173462702076407e+01 2.416792794021350055e+00 3.398454947394050407e+01 1.320126688546410065e+01 -3.249540206051296565e+01 -2.527084209519749436e+00 -4.065606525991015907e+00 3.663570438020041564e+01 1.141754270865626708e+01 -6.979935183433277679e+00 -1.831767278563749102e+01 -1.224200674872411909e+01 -1.076900183266844335e+00 4.877300838944067962e+00 -6.890644902604533328e+00 -2.324941264458810219e-01 1.199806396458780400e+00 -1.651775763134436747e+00 -3.932174809349234801e-01 1.930081323704653906e+00 -2.638636050900747598e+00 -2.680502363120838560e-01 -2.023166987154679519e-01 1.054658589294755977e+00 -1.620888112780387580e-01 -2.389507814850504896e+00 1.183657186193248734e+01 -3.880083816678888020e+00 1.858563702140605400e+00 1.267400436283054788e+01 3.218260265909541840e+00 -7.807671100784437712e+00 1.114771684190380796e+01 5.236973192422689038e+01 -3.404315443597427304e+01 1.859071720108521930e+01 2.516841753429238437e+01 -6.854468340953117078e+00 8.178887851260225261e+01 3.056262641959539561e+00 -2.782343812325272481e+01 1.049095171203245869e+01 2.818400000000000105e+01 1.072940000000000005e+01 1.915919999999999845e+01 1.781302035223272487e-14 3.847124737226298022e-15 -1.000000000000000000e+01 8.057419515457732570e-15 3.079291283973241675e-15 -1.000000000000000000e+01 -1.237216985161792380e-15 -1.289604461742401333e-15 3.065283813344973457e-15 1.998179999999999978e+01 8.718970000000000331e-01 2.396399999999999864e+00 2.400000000000000000e+01 -2.976154770387822148e-15 -9.321234023233089889e-16 2.000000000000000000e+01 3.441649922893000877e-15 7.993822070241437801e-15 -1.237216985161792380e-15 -1.289604461742401333e-15 3.065283813344973457e-15 2.000000000000000000e+01 1.001726134485138605e-15 -7.065334931194815699e-15 2.400000000000000000e+01 4.474148985646000290e-15 1.200912627181543897e-15 2.000000000000000000e+01 3.321720002025389592e-15 7.215201796217739188e-15 -1.237216985161792380e-15 -1.289604461742401333e-15 3.065283813344973457e-15 1.997479999999999833e+01 -1.025649999999999951e+00 -2.819380000000000219e+00 2.400000000000000000e+01 1.314414456538234570e-16 -8.245398979761050502e-15 2.000000000000000000e+01 -8.106177695004242033e-16 1.225974918095282468e-14 -1.237216985161792380e-15 -1.289604461742401333e-15 3.065283813344973457e-15 1.978150000000000119e+01 -3.009479999999999933e+00 -8.305149999999999366e+00 2.400000000000000000e+01 3.656493293695316142e-15 7.726733073291230513e-15 2.000000000000000000e+01 8.019985143155102511e-15 -3.164435769125548253e-15 9.367905849654462713e+00 -2.237940935153595490e+01 -4.273177832510490504e+01 -3.047566371692174059e+01 2.795832574094935552e+01 -9.426538534540544845e+01 1.180085277380579001e+01 -2.211572331970923244e+01 -2.808226211537889583e+01 -3.349501414130423882e+01 -1.065361349257823953e+01 -9.511355683102328484e+00 -2.818400000000000105e+01 1.072940000000000005e+01 -1.915919999999999845e+01 -3.636048872785181297e-15 7.387358963060623712e-15 1.000000000000000000e+01 3.433049084562457717e-15 -6.423946051005796974e-16 1.000000000000000000e+01 8.347447519580879028e-15 -2.573528558629971159e-15 -1.896350266668527285e-15 -1.998179999999999978e+01 8.718970000000000331e-01 -2.396399999999999864e+00 -2.400000000000000000e+01 1.657781184749144672e-15 8.568928805249726153e-16 -2.000000000000000000e+01 -2.694230247941512388e-15 2.187609714901263522e-15 8.347447519580879028e-15 -2.573528558629971159e-15 -1.896350266668527285e-15 -2.000000000000000000e+01 4.474985116983768891e-15 1.012121039823641799e-14 -2.400000000000000000e+01 7.524011104517206436e-15 7.213889142384387621e-15 -2.000000000000000000e+01 -1.892074723591187839e-15 3.789373321026751847e-15 8.347447519580879028e-15 -2.573528558629971159e-15 -1.896350266668527285e-15 -1.997479999999999833e+01 -1.025649999999999951e+00 2.819380000000000219e+00 -2.400000000000000000e+01 -1.023962386277980839e-17 -1.106203565035248532e-16 -2.000000000000000000e+01 7.689332913580777425e-16 -4.573524105468729578e-15 8.347447519580879028e-15 -2.573528558629971159e-15 -1.896350266668527285e-15 -1.978150000000000119e+01 -3.009479999999999933e+00 8.305149999999999366e+00 -2.400000000000000000e+01 2.021204733487760471e-15 9.951018851012502123e-15 -2.000000000000000000e+01 -1.269627567026723421e-16 -6.898128654249032206e-15
1.050000000000000000e+03 0.000000000000000000e+00 0.000000000000000000e+00 0.000000000000000000e+00 0.000000000000000000e+00 0.000000000000000000e+00 2.212661649161277566e+01 9.398552978477582087e+00 -8.610324847485031796e+01 7.903221206641523722e+00 -3.652639911038426135e+01 6.171982343810160643e+00 -3.776800764225363594e+00 1.757836311500862081e+01 -7.461760183152748027e+00 1.070074748910257867e+01 2.544541804810478425e+00 3.382703719379114204e+01 1.292164496742985413e+01 -3.244873677867259687e+01 -2.820850699991496846e+00 -3.889496087100288158e+00 3.650362422527053496e+01 1.120088300816844651e+01 -7.045338904558555271e+00 -1.817639662034121173e+01 -1.255821376631024933e+01 -1.024918744762449929e+00 4.827940920344291342e+00 -6.737409747663436477e+00 -2.220561507422283143e-01 1.185744488088835036e+00 -1.611781687754600068e+00 -3.741589357797100446e-01 1.905224546728132795e+00 -2.577900240210539096e+00 -2.602180210088822498e-01 -1.998055939719435292e-01 1.030317454357322804e+00 -1.465871120008535033e-01 -2.389116114247315181e+00 1.153251337092474316e+01 -3.742034420057707145e+00 1.929020599856178908e+00 1.237939708260535099e+01 3.184241042681759559e+00 -7.881221734947221336e+00 1.123099434296712928e+01 5.226113427408502332e+01 -3.376586146538024025e+01 1.899090742086979589e+01 2.477208927153327878e+01 -6.737664273196015685e+00 8.152267409051123082e+01 3.072451890086690174e+00 -2.776646244187601553e+01 1.065834954019555347e+01 2.818400000000000105e+01 1.072940000000000005e+01 1.915919999999999845e+01 1.780721237957264137e-14 3.824515988602913930e-15 -1.000000000000000000e+01 8.067690292329512464e-15 3.075360116478851823e-15 -1.000000000000000000e+01 -1.217641211306612189e-15 -1.282559473662293631e-15 3.061392555269969666e-15 1.998179999999999978e+01 8.718970000000000331e-01 2.396399999999999864e+00 2.400000000000000000e+01 -2.981050225063815843e-15 -9.700403253453595787e-16 2.000000000000000000e+01 3.462930049856007284e-15 7.988727969584192519e-15 -1.217641211306612189e-15 -1.282559473662293631e-15 3.061392555269969666e-15 2.000000000000000000e+01 9.967678125543525390e-16 -7.096517830326285479e-15 2.400000000000000000e+01 4.455622275637868191e-15 1.170745791009987601e-15 2.000000000000000000e+01 3.327920083701974180e-15 7.187207320192459953e-15 -1.217641211306612189e-15 -1.282559473662293631e-15 3.061392555269969666e-15 1.997479999999999833e+01 -1.025649999999999951e+00 -2.819380000000000219e+00 2.400000000000000000e+01 1.155142356684974985e-16 -8.283768954988497910e-15 2.000000000000000000e+01 -7.996694976459530009e-16 1.222580707616763118e-14 -1.217641211306612189e-15 -1.282559473662293631e-15 3.061392555269969666e-15 1.978150000000000119e+01 -3.009479999999999933e+00 -8.305149999999999366e+00 2.400000000000000000e+01 3.655826539873329368e-15 7.725175727811631823e-15 2.000000000000000000e+01 8.018879648249549124e-15 -3.183188834215242526e-15 9.315964820651078782e+00 -2.234868620415215190e+01 -4.259786647062959730e+01 -3.069353017848296616e+01 2.767346667564934748e+01 -9.391133684237928492e+01 1.151131962020168231e+01 -2.221346160066796216e+01 -2.873618040013808539e+01 -3.350847111339074047e+01 -1.051839263778283140e+01 -9.617150147789926606e+00 -2.818400000000000105e+01 1.072940000000000005e+01 -1.915919999999999845e+01 -3.618964595541099319e-15 7.379602305328493342e-15 1.000000000000000000e+01 3.464976733782733534e-15 -6.565208062534574979e-16 1.000000000000000000e+01 8.355218351449731903e-15 -2.585260599952451425e-15 -1.891629005953411487e-15 -1.998179999999999978e+01 8.718970000000000331e-01 -2.396399999999999864e+00 -2.400000000000000000e+01 1.658917407218785108e-15 8.848376751858327736e-16 -2.000000000000000000e+01 -2.696903652285972802e-15 2.207272774636352837e-15 8.355218351449731903e-15 -2.585260599952451425e-15 -1.891629005953411487e-15 -2.000000000000000000e+01 4.474508765624794042e-15 1.013090190112817075e-14 -2.400000000000000000e+01 7.502312519623239798e-15 7.226669001559715003e-15 -2.000000000000000000e+01 -1.896468691782610749e-15 3.828799231764162335e-15 8.355218351449731903e-15 -2.585260599952451425e-15 -1.891629005953411487e-15 -1.997479999999999833e+01 -1.025649999999999951e+00 2.819380000000000219e+00 -2.400000000000000000e+01 -1.652202899992745415e-17 -9.876014842200211197e-17 -2.000000000000000000e+01 7.683211067563956769e-16 -4.531116734646340198e-15 8.355218351449731903e-15 -2.585260599952451425e-15 -1.891629005953411487e-15 -1.978150000000000119e+01 -3.009479999999999933e+00 8.305149999999999366e+00 -2.400000000000000000e+01 2.014203136727297430e-15 9.971181349717555648e-15 -2.000000000000000000e+01 -1.308689103249567483e-16 -6.873391983509685446e-15
